<svg version="1.2" xmlns="http://www.w3.org/2000/svg" viewBox="0 0 331 146" width="331" height="146"><style>.a{fill:#f89d1b}</style><path class="a" d="m87.8 31.8c2.1-0.1 3.9 1.6 3.9 3.7 0 2-1.6 3.8-3.7 3.8-2.1 0-3.8-1.6-3.9-3.7 0-2.1 1.7-3.8 3.7-3.8z"/><path class="a" d="m103 20.1c3.3-0.1 6 2.5 6 5.7 0.1 3.3-2.5 6-5.7 6-3.3 0.1-5.9-2.5-6-5.7-0.1-3.2 2.5-5.9 5.7-6z"/><path class="a" d="m122.6 9.1c4.3-0.1 7.9 3.3 8 7.6 0 4.3-3.4 7.9-7.7 8-4.3 0.1-7.8-3.3-7.9-7.6-0.1-4.3 3.3-7.9 7.6-8z"/><path class="a" d="m146.1 2.6c5.2-0.2 9.4 3.9 9.5 9.1 0.1 5.1-3.9 9.4-9.1 9.5-5.1 0.1-9.4-4-9.5-9.1-0.1-5.2 4-9.4 9.1-9.5z"/><path class="a" d="m173.4 0c6.4-0.1 11.6 4.9 11.7 11.2 0.1 6.3-4.9 11.5-11.2 11.6-6.3 0.2-11.5-4.8-11.6-11.1-0.2-6.4 4.8-11.6 11.1-11.7z"/><path class="a" d="m205.4 2.7c7-0.2 12.9 5.4 13 12.5 0.2 7-5.4 12.8-12.5 13-7 0.1-12.8-5.5-13-12.5-0.1-7 5.5-12.9 12.5-13z"/><path class="a" d="m236.9 15c8.1-0.1 14.9 6.3 15 14.5 0.2 8.1-6.3 14.8-14.4 15-8.2 0.2-14.9-6.3-15.1-14.4-0.1-8.2 6.3-14.9 14.5-15.1z"/><path class="a" d="m246.6 113.5c-2.1 0.1-3.8-1.6-3.8-3.6-0.1-2.1 1.6-3.8 3.7-3.9 2 0 3.8 1.6 3.8 3.7 0.1 2.1-1.6 3.8-3.7 3.8z"/><path class="a" d="m231.5 125.1c-3.2 0.1-5.9-2.5-6-5.7 0-3.2 2.5-5.9 5.8-5.9 3.2-0.1 5.8 2.5 5.9 5.7 0.1 3.2-2.5 5.9-5.7 5.9z"/><path class="a" d="m212 136.1c-4.3 0.1-7.8-3.3-7.9-7.6-0.1-4.3 3.3-7.8 7.6-7.9 4.3-0.1 7.8 3.3 7.9 7.6 0.1 4.3-3.3 7.8-7.6 7.9z"/><path class="a" d="m188.6 142.6c-5.1 0.1-9.4-3.9-9.5-9.1-0.1-5.1 4-9.3 9.1-9.4 5.1-0.1 9.4 3.9 9.5 9.1 0.1 5.1-4 9.3-9.1 9.4z"/><path class="a" d="m161.4 145.2c-6.3 0.1-11.5-4.9-11.6-11.2-0.1-6.3 4.8-11.5 11.1-11.6 6.3-0.1 11.5 4.9 11.6 11.2 0.2 6.2-4.8 11.4-11.1 11.6z"/><path class="a" d="m129.6 142.5c-7 0.1-12.8-5.4-13-12.4-0.1-7.1 5.4-12.9 12.5-13 7-0.2 12.8 5.4 12.9 12.4 0.2 7-5.4 12.8-12.4 13z"/><path class="a" d="m98.2 130.2c-8.1 0.2-14.8-6.3-14.9-14.4-0.2-8.1 6.2-14.8 14.3-15 8.1-0.1 14.8 6.3 15 14.4 0.2 8.1-6.3 14.8-14.4 15z"/><path fill-rule="evenodd" class="a" d="m30.4 54.2c2.5 0 6.6 0.2 8.4 1.6 2 1.5 1.7 4.7 1.1 7.3q-1 4.5-2 9-1 4.5-2 9c-0.4 1.8-1.1 4.3-2.2 5.9-1.4 1.7-3.3 2.6-5.3 3-2 0.4-4.1 0.5-6.1 0.5q-10.7 0-21.4 0c-0.7 0-1-0.5-0.9-1.2q0.7-3 1.4-5.9c0.1-0.7 0.7-1.2 1.3-1.2q10.7 0 21.5 0c0.6 0 1.2-0.5 1.3-1.1q0.5-2.4 1.1-4.9c0.1-0.6-0.3-1.1-0.9-1.1q-7.9 0-15.7 0c-0.6 0-1-0.5-0.9-1.1q0.4-1.9 0.8-3.7c0.2-0.6 0.8-1.2 1.4-1.2 5.3 0 10.5 0 15.8 0 0.5 0 1.1-0.4 1.3-1q0.5-2.5 1.1-5c0.1-0.6-0.3-1.1-0.8-1.1q-10.7 0-21.4 0c-0.7 0-1-0.5-0.9-1.1q0.6-2.8 1.3-5.5c0.1-0.7 0.7-1.2 1.3-1.2q10.7 0 21.4 0zm37.1 36.3c-0.6 0-1.1-0.5-0.9-1.2q1.4-6.5 2.9-13.1 1.5-6.6 2.9-13.1c0.2-0.6-0.2-1.1-0.8-1.1q-5.8 0-11.6 0c-0.6 0-1.1 0.5-1.3 1.1q-1 4.5-2 9-1 4.5-2 9c-0.5 2-1.5 5.9-3.1 7.5-1.8 1.7-5.6 1.9-7.7 1.9-1.4 0-2.7 0-4 0-0.7 0-1.1-0.5-0.9-1.2q0.7-3 1.3-5.9c0.2-0.7 0.8-1.2 1.5-1.2 0.5 0 1 0 1.5 0 0.6 0 1.1-0.5 1.3-1.1q1-4.6 2.1-9.2 1-4.6 2-9.2c0.6-2.5 1.7-5.4 4.3-6.9 2.3-1.4 6-1.6 8.4-1.6q11.2 0 22.3 0c0.6 0 1 0.5 0.9 1.2q-1.9 8.5-3.8 17-1.9 8.4-3.8 16.9c-0.1 0.7-0.8 1.2-1.4 1.2q-4.1 0-8.1 0zm42.8 0c-0.7 0-1.1-0.5-0.9-1.2q1-4.8 2.1-9.7 1.1-4.9 2.2-9.8c0.1-0.4-0.2-0.8-0.5-1-0.5-0.1-1 0.1-1.3 0.5q-4.6 5.1-9.2 10.3-4.6 5.2-9.2 10.4c-0.3 0.3-0.7 0.5-1.1 0.5q-4.3 0-8.7 0c-0.6 0-1-0.5-0.9-1.2q1.9-8.5 3.8-16.9 1.9-8.5 3.8-17c0.1-0.7 0.7-1.2 1.4-1.2q3.8 0 7.7 0c0.6 0 1 0.5 0.9 1.2q-1.1 4.9-2.2 9.7-1.1 4.9-2.2 9.8c-0.1 0.4 0.1 0.8 0.6 1 0.4 0.1 0.9-0.1 1.2-0.5q4.6-5.1 9.2-10.3 4.6-5.2 9.2-10.4 0.4-0.5 1.1-0.5 4.3 0 8.6 0c0.6 0 1.1 0.5 0.9 1.2q-1.9 8.5-3.7 17-1.9 8.4-3.8 16.9c-0.1 0.7-0.8 1.2-1.4 1.2q-3.9 0-7.6 0zm41.7 0c-0.7 0-1.1-0.5-0.9-1.2q1.4-6.5 2.9-13.1 1.4-6.6 2.8-13.1c0.2-0.6-0.2-1.1-0.8-1.1q-6.7 0-13.5 0c-0.5 0-1.1 0.5-1.2 1.1q-1.5 6.5-2.9 13.1-1.5 6.6-2.9 13.1c-0.2 0.7-0.8 1.2-1.4 1.2q-4.1 0-8.2 0c-0.6 0-1-0.5-0.9-1.2q1.9-8.5 3.8-16.9 1.9-8.5 3.7-17c0.2-0.7 0.8-1.2 1.4-1.2q17.1 0 34.2 0c0.6 0 1 0.5 0.9 1.2q-1.9 8.5-3.8 17-1.8 8.4-3.7 16.9c-0.1 0.7-0.8 1.2-1.4 1.2q-4.1 0-8.1 0zm25.4 0c-2 0-4-0.1-5.9-0.5-1.8-0.4-3.3-1.3-3.9-3-0.4-1.6 0-4.1 0.4-5.9q1-4.5 2-9 0.9-4.5 1.9-9c0.6-2.6 1.7-5.8 4.4-7.3 2.4-1.4 6.5-1.6 9-1.6q10.7 0 21.5 0c0.6 0 1 0.6 0.8 1.2q-0.6 2.7-1.2 5.5c-0.1 0.6-0.7 1.1-1.4 1.1q-10.7 0-21.4 0c-0.6 0-1.1 0.5-1.3 1.1q-1 4.5-1.9 9-1 4.5-2 9c-0.2 0.6 0.2 1.1 0.8 1.1q10.7 0 21.5 0c0.6 0 1 0.5 0.9 1.2q-0.7 2.9-1.3 5.9c-0.2 0.7-0.8 1.2-1.4 1.2q-10.8 0-21.5 0zm56.2 0c-0.6 0-1-0.5-0.9-1.2q1.5-6.5 2.9-13.1 1.4-6.6 2.8-13.1c0.2-0.6-0.2-1.1-0.8-1.1-3.9 0-7.8 0-11.6 0-0.6 0-1.2 0.5-1.3 1.1q-1 4.5-2 9-0.9 4.5-1.9 9c-0.5 2-1.4 5.9-3.1 7.5-1.8 1.7-5.6 1.9-7.7 1.9q-2 0-4 0c-0.6 0-1-0.5-0.9-1.2q0.6-3 1.3-5.9c0.1-0.7 0.8-1.2 1.4-1.2q0.8 0 1.6 0c0.6 0 1.1-0.5 1.2-1.1q1.1-4.6 2.1-9.2 1-4.6 2-9.2c0.5-2.5 1.6-5.4 4.2-6.9 2.3-1.4 6-1.6 8.5-1.6q11.1 0 22.2 0c0.7 0 1.1 0.6 0.9 1.2q-1.8 8.5-3.6 17-1.9 8.4-3.7 16.9c-0.2 0.7-0.8 1.2-1.5 1.2q-4 0-8.1 0zm16.1 0c-0.7 0-1.1-0.5-0.9-1.2q1.8-8.5 3.6-16.9 1.9-8.5 3.7-17c0.2-0.6 0.8-1.2 1.5-1.2q14.7 0 29.4 0c0.6 0 1 0.6 0.8 1.2q-0.5 2.7-1.1 5.5c-0.2 0.6-0.8 1.1-1.4 1.1q-9.6 0-19.1 0c-0.6 0-1.2 0.5-1.3 1.1q-0.5 2.5-1.1 5c-0.1 0.6 0.3 1 0.8 1q8.6 0 17.2 0c0.7 0 1.1 0.6 1 1.2q-0.4 1.8-0.8 3.7c-0.2 0.6-0.8 1.1-1.5 1.1q-8.6 0-17.2 0c-0.5 0-1.1 0.5-1.2 1.1q-0.6 2.5-1.1 4.9c-0.1 0.6 0.2 1.1 0.8 1.1q9.5 0 19.1 0c0.6 0 1 0.5 0.9 1.2q-0.6 2.9-1.3 5.9c-0.1 0.7-0.8 1.2-1.4 1.2q-14.7 0-29.4 0zm36.2 0c-0.7 0-1.1-0.5-0.9-1.2q0.6-3 1.3-5.9c0.1-0.7 0.7-1.2 1.3-1.2q0.8 0 1.6 0c0.6 0 1.2-0.5 1.3-1.1q1-4.6 2-9.2 0.9-4.6 1.9-9.2c0.6-2.6 1.7-5.5 4.3-6.9 2.4-1.4 6.3-1.6 8.7-1.6q11.1 0 22.3 0c0.6 0 1 0.6 0.8 1.2q-1.3 6.4-2.7 12.9-1.4 6.4-2.8 12.8c-0.1 0.6 0.3 1.1 0.8 1.1q0.8 0 1.6 0c0.7 0 1.1 0.5 1 1.2q-0.7 2.9-1.3 5.9c-0.2 0.7-0.8 1.2-1.5 1.2q-19.9 0-39.7 0zm28.7-9.4q1-4.5 2-9 0.9-4.5 1.9-9c0.1-0.6-0.2-1.1-0.8-1.1-4 0-8 0-12 0-0.5 0-1.1 0.5-1.3 1.1q-0.9 4.5-1.9 9-0.9 4.5-1.9 9c-0.1 0.6 0.3 1.1 0.8 1.1q6 0 11.9 0c0.6 0 1.2-0.5 1.3-1.1z"/></svg>